<svg width="764" height="743" viewBox="0 0 764 743" fill="none" xmlns="http://www.w3.org/2000/svg">
<path d="M53.8956 -381.817C104.569 -345.141 164.697 -302.994 203.931 -288.817C266.959 -266.867 324.577 -266.555 390.822 -245.419C430.95 -232.305 675.182 -156.755 747.493 129.078C819.804 414.911 641.648 660.798 381.211 726.684C120.773 792.57 -165.586 646.99 -235.982 368.729C-306.378 90.4674 -121.657 -93.9875 -86.8388 -124.579C-45.874 -162.526 -14.2086 -184.135 29.6111 -241.43C50.0116 -269.534 65.2019 -305.472 53.8956 -381.817ZM601.872 543.385C599.676 539.3 593.682 533.985 585.871 543.952C568.173 565.637 524.476 597.379 455.285 614.883C386.094 632.387 350.128 626.534 324.154 614.737L324.305 614.57C320.552 613.264 321.644 612.988 315.151 614.631C309.12 616.622 304.03 620.754 300.846 626.241C299.658 628.085 298.862 630.153 298.507 632.315C298.153 634.478 298.247 636.69 298.784 638.814C299.322 640.938 300.291 642.93 301.631 644.664C302.971 646.398 304.655 647.837 306.577 648.894C365.025 680.058 443.1 656.827 500.123 636.666C540.061 621.421 575.248 595.886 602.098 562.661C604.038 559.807 605.055 556.43 605.014 552.984C604.974 549.538 603.877 546.188 601.872 543.385ZM472.519 446.376C455.221 450.752 445.173 452.134 428.759 464.342C412.345 476.551 397.472 498.681 388.061 512.533C378.65 526.385 378.839 535.812 387.448 542.527C396.056 549.243 401.188 542.209 415.762 522.474C430.337 502.74 438.954 486.768 476.765 477.203C514.577 467.637 524.49 479.759 535.693 492.134C546.896 504.509 548.525 506.353 554.963 500.149C556.902 498.93 558.549 497.301 559.789 495.377C561.028 493.454 561.831 491.282 562.139 489.017C562.446 486.751 562.251 484.445 561.568 482.264C560.886 480.082 559.732 478.077 558.188 476.39C551.151 466.699 538.539 449.266 523.481 443.86C508.422 438.453 489.756 442.015 472.458 446.391L472.519 446.376ZM157.401 273.656C58.2762 300.215 -0.644919 398.902 19.4698 483.008L19.4238 482.827C30.3902 530.514 55.2693 560.956 93.4107 575.41C118.618 583.92 140.508 588.759 205.329 572.36C312.393 545.274 415.001 378.306 478.553 364.548C528.813 354.154 637.178 455.246 676.895 448.615C707.368 443.225 720.687 424.904 736.753 380.689C752.819 336.474 748.346 273.352 739.887 239.917C731.429 206.482 702.126 154.217 648.108 167.883C597.308 180.735 520.26 312.686 466.519 327.443C403.005 344.67 283.55 240.582 157.401 273.656Z" fill="url(#paint0_linear_2_738)" fill-opacity="0.548"/>
<defs>
<linearGradient id="paint0_linear_2_738" x1="1881.19" y1="-1541.77" x2="-348.567" y2="-568.114" gradientUnits="userSpaceOnUse">
<stop/>
<stop offset="1" stop-color="white" stop-opacity="0"/>
</linearGradient>
</defs>
</svg>
