<svg width="28" height="24" viewBox="0 0 28 24" fill="none" xmlns="http://www.w3.org/2000/svg">
<g opacity="0.5" clip-path="url(#clip0_2_288)">
<path d="M3.49999 3H24.5C24.8094 3 25.1062 3.10536 25.325 3.29289C25.5437 3.48043 25.6667 3.73478 25.6667 4V20C25.6667 20.2652 25.5437 20.5196 25.325 20.7071C25.1062 20.8946 24.8094 21 24.5 21H3.49999C3.19058 21 2.89383 20.8946 2.67504 20.7071C2.45624 20.5196 2.33333 20.2652 2.33333 20V4C2.33333 3.73478 2.45624 3.48043 2.67504 3.29289C2.89383 3.10536 3.19058 3 3.49999 3ZM23.3333 7.238L14.084 14.338L4.66666 7.216V19H23.3333V7.238ZM5.26283 5L14.0712 11.662L22.7523 5H5.26283Z" fill="white"/>
</g>
<defs>
<clipPath id="clip0_2_288">
<rect width="28" height="24" fill="white"/>
</clipPath>
</defs>
</svg>
